<svg width="598" height="603" viewBox="0 0 598 603" fill="none" xmlns="http://www.w3.org/2000/svg">
<g clip-path="url(#clip0)">
<ellipse cx="299" cy="304.5" rx="288" ry="298.5" fill="#F9FFB8"/>
<circle cx="299.5" cy="300.5" r="298.5" fill="#7689F5"/>
<path d="M424.582 230.039C424.582 338.259 455.582 452 295.578 452C135.574 452 167.622 339.396 167.622 230.039C166.022 119.408 223.265 69.7995 296.626 71.022C368.453 71.022 424.582 121.819 424.582 230.039Z" fill="#C65C2C"/>
<path d="M266 310H325V334.469C301.959 339.1 289.041 339.253 266 334.469V310Z" fill="#FFE3C2"/>
<path d="M379 212.5C379 277.946 332.728 322 295.5 322C258.272 322 212 277.946 212 212.5C212 147.054 249.384 94 295.5 94C341.616 94 379 147.054 379 212.5Z" fill="#FFECD7"/>
<path d="M271.52 77.7545L293.246 97.4177C293.246 97.4177 297.103 108.265 253.902 153.482C210.7 198.7 198.727 199.959 198.727 199.959L177 180.296L271.52 77.7545Z" fill="#C65C2C"/>
<path d="M313.515 72.2995L291.788 91.9627C291.788 91.9627 276 91.9627 336.769 154.142C397.538 216.322 397.872 207.05 397.872 207.05L419.598 187.387L313.515 72.2995Z" fill="#C65C2C"/>
<path fill-rule="evenodd" clip-rule="evenodd" d="M441.061 529C440.941 521.602 440.265 514.182 439 506.802C421.303 403.574 381.627 374 290.5 374C199.373 374 167 414.951 155 514.839C155 519.641 155.121 524.362 155.36 529H441.061Z" fill="#F9FFB8"/>
<path d="M158.55 494.161L195.663 502L185.5 577L166.428 568.111L144.928 556.111L158.55 494.161Z" fill="#F9FFB8"/>
<path d="M436.908 499.341L399.456 505.352L406.892 582.727L425.415 572.816L447 560.5L443 532L436.908 499.341Z" fill="#F9FFB8"/>
<path fill-rule="evenodd" clip-rule="evenodd" d="M271.841 185.981C271.065 186.121 270.268 185.985 269.525 185.717C269.352 185.654 269.171 185.593 268.98 185.534C266.231 184.679 262.251 184.411 257.781 185.219C253.31 186.026 249.685 187.67 247.421 189.43C247.264 189.553 247.116 189.673 246.977 189.792C246.378 190.303 245.682 190.709 244.906 190.849C242.533 191.278 240.652 189.248 242.238 187.438C245.053 184.224 250.414 181.469 256.869 180.302C263.324 179.136 269.326 179.837 273.112 181.858C275.244 182.996 274.214 185.552 271.841 185.981Z" fill="#BD582A"/>
<path fill-rule="evenodd" clip-rule="evenodd" d="M264.881 269.268C265.716 269.381 266.396 269.976 266.775 270.731C267.671 272.514 269.301 274.431 271.859 276.341C276.426 279.75 283.26 282.53 291.289 283.622C299.319 284.713 306.631 283.855 311.916 281.785C314.878 280.625 316.945 279.21 318.27 277.729C318.83 277.102 319.64 276.71 320.475 276.823C321.912 277.019 322.751 278.541 321.862 279.682C316.905 286.05 304.559 289.462 290.769 287.588C276.979 285.714 265.945 279.125 262.805 271.656C262.242 270.317 263.444 269.073 264.881 269.268Z" fill="#D2A0A0"/>
<path fill-rule="evenodd" clip-rule="evenodd" d="M339.963 189.203C339.181 189.098 338.465 188.724 337.84 188.24C337.695 188.128 337.541 188.014 337.377 187.899C335.024 186.241 331.319 184.763 326.817 184.159C322.314 183.555 318.359 184.005 315.664 184.985C315.477 185.053 315.299 185.123 315.13 185.193C314.404 185.496 313.617 185.668 312.835 185.563C310.445 185.242 309.279 182.733 311.343 181.497C315.01 179.303 320.958 178.328 327.459 179.2C333.96 180.073 339.456 182.584 342.439 185.67C344.118 187.408 342.353 189.524 339.963 189.203Z" fill="#BD582A"/>
<path fill-rule="evenodd" clip-rule="evenodd" d="M284.897 245.083C285.661 245.081 286.403 245.344 287.071 245.715C289.13 246.863 292.31 247.724 296.092 247.711C299.873 247.699 303.047 246.817 305.099 245.656C305.764 245.28 306.505 245.012 307.269 245.01C309.674 245.002 311.215 247.318 309.335 248.818C306.407 251.157 301.576 252.693 296.108 252.711C290.64 252.729 285.799 251.225 282.855 248.906C280.966 247.417 282.492 245.091 284.897 245.083Z" fill="#D2BCA0"/>
<ellipse cx="261.5" cy="204" rx="7.5" ry="10" fill="#404040"/>
<ellipse cx="339.376" cy="229.372" rx="7.5" ry="10" transform="rotate(-55.95 339.376 229.372)" fill="#F2CEC9"/>
<ellipse cx="245.474" cy="228.749" rx="7.5" ry="10" transform="rotate(56.8329 245.474 228.749)" fill="#F2CEC9"/>
<ellipse cx="323.5" cy="204" rx="7.5" ry="10" fill="#404040"/>
<path d="M355 384.34C355 391.155 329.804 403 296.667 403C263.53 403 235 391.155 235 384.34C235 377.525 261.863 372 295 372C328.137 372 355 377.525 355 384.34Z" fill="#FFECD7"/>
<path d="M266 332C289.757 336.941 302.671 336.903 325 332V388H266V332Z" fill="#FFECD7"/>
<ellipse cx="378.5" cy="206" rx="13.5" ry="13" fill="#FFECD7"/>
<ellipse cx="212.5" cy="204" rx="13.5" ry="13" fill="#FFECD7"/>
<circle cx="326" cy="200" r="2" fill="white"/>
<circle cx="264" cy="200" r="2" fill="white"/>
<path d="M383 214V248.5" stroke="#DEDBDB" stroke-width="2"/>
<circle cx="383" cy="215" r="4" fill="#C4C4C4"/>
<path d="M208 214V250.717" stroke="#DEDBDB" stroke-width="2"/>
<circle cx="208" cy="213" r="4" fill="#C4C4C4"/>
<circle cx="259.5" cy="241.5" r="1.5" fill="#DCA970"/>
<circle cx="267.5" cy="242.5" r="1.5" fill="#DCA970"/>
<circle cx="264.5" cy="237.5" r="1.5" fill="#DCA970"/>
<circle cx="318.967" cy="236.14" r="1.39841" transform="rotate(39.0641 318.967 236.14)" fill="#DCA970"/>
<circle cx="324.498" cy="241.53" r="1.39841" transform="rotate(39.0641 324.498 241.53)" fill="#DCA970"/>
<circle cx="349.967" cy="212.967" r="1.39841" transform="rotate(39.0641 349.967 212.967)" fill="#DCA970"/>
<path d="M250.967 242.795C250.48 243.395 249.6 243.487 249 243C248.4 242.513 248.309 241.633 248.795 241.033C249.282 240.433 250.163 240.342 250.763 240.828C251.362 241.315 251.454 242.196 250.967 242.795Z" fill="#DCA970"/>
<circle cx="325.411" cy="235.967" r="1.39841" transform="rotate(39.0641 325.411 235.967)" fill="#DCA970"/>
<path d="M222 261.5C222 268.404 216.404 274 209.5 274C202.596 274 197 268.404 197 261.5C197 254.596 202.596 249 209.5 249C216.404 249 222 254.596 222 261.5Z" fill="url(#paint0_linear)"/>
<path d="M394.696 266.059C391.626 272.242 384.125 274.766 377.941 271.696C371.758 268.626 369.234 261.125 372.304 254.941C375.374 248.758 382.875 246.234 389.059 249.304C395.242 252.374 397.766 259.875 394.696 266.059Z" fill="url(#paint1_linear)"/>
<path d="M441 530.5C441 584 379.477 600.5 300.5 600.5C221.523 600.5 150.5 575.5 155 530.5C155 469.473 219.023 420 298 420C376.977 420 441 469.473 441 530.5Z" fill="#F9FFB8"/>
<path d="M165.595 337.814L250.087 325.09C258.544 328.841 282.532 426.949 269.478 453.852C256.423 480.755 204.6 494.042 184.985 466.576C165.37 439.11 166.703 410.442 165.595 337.814Z" fill="#C65C2C"/>
<path d="M427.057 317.338L339.484 308.145C330.9 312.878 313.309 417.945 324.15 454.203C334.992 490.461 390.5 486.5 411.723 463.397C432.947 440.293 428.541 399.127 427.057 317.338Z" fill="#C65C2C"/>
<path d="M484.444 340.276L510.93 367.873L473.788 377.012L484.444 340.276Z" fill="#70DCBA"/>
<rect x="99.1753" y="420" width="20" height="20" transform="rotate(53.9754 99.1753 420)" fill="#FFE3C2"/>
<rect x="366.175" y="21" width="20" height="20" transform="rotate(53.9754 366.175 21)" fill="#FFE3C2"/>
<rect x="64.2523" y="312.508" width="37.2966" height="37.2966" transform="rotate(107.015 64.2523 312.508)" fill="#FDD7EB"/>
<rect x="517.578" y="151.914" width="37.2966" height="37.2966" transform="rotate(107.015 517.578 151.914)" fill="#FDD7EB"/>
<circle cx="111.5" cy="134.5" r="16.5" stroke="#70DCBA" stroke-width="8"/>
<circle cx="80.5" cy="500.5" r="14" stroke="white" stroke-width="5"/>
<path d="M48.8851 153.305L38.3305 178.107L22.1284 156.566L48.8851 153.305Z" fill="white"/>
<path d="M253.12 30.157L218.278 63.884L206.49 16.8467L253.12 30.157Z" fill="url(#paint2_linear)"/>
<circle cx="551" cy="270" r="17" fill="#F9FFB8"/>
<circle cx="551" cy="270" r="17" fill="url(#paint3_linear)"/>
<circle cx="533" cy="98" r="25" stroke="#F9FFB8" stroke-width="8"/>
<line x1="251.802" y1="197.59" x2="254.797" y2="200.713" stroke="#404040"/>
<line x1="254.924" y1="194.595" x2="257.92" y2="197.717" stroke="#404040"/>
<line y1="-0.5" x2="4.32666" y2="-0.5" transform="matrix(-0.692266 0.721643 0.721643 0.692266 333.117 196.995)" stroke="#404040"/>
<line y1="-0.5" x2="4.32666" y2="-0.5" transform="matrix(-0.692266 0.721643 0.721643 0.692266 329.995 195)" stroke="#404040"/>
<circle cx="338.967" cy="270.967" r="1.39841" transform="rotate(39.0641 338.967 270.967)" fill="#DCA970"/>
<circle cx="520.5" cy="430.5" r="10.5" fill="#F9FFB8"/>
<path d="M386.763 206.786C386.829 207.124 386.545 207.427 386.204 207.384L383.715 207.069C383.312 207.018 382.903 207.091 382.543 207.278L379.898 208.65C379.594 208.808 379.223 208.629 379.157 208.292C379.12 208.103 379.191 207.909 379.344 207.792C381.728 205.968 383.489 205.557 386.416 206.404C386.594 206.456 386.727 206.604 386.763 206.786Z" fill="#D2BCA0"/>
<path d="M205.135 204.437C205.068 204.774 205.352 205.078 205.693 205.035L208.182 204.719C208.585 204.668 208.994 204.741 209.354 204.928L211.999 206.3C212.303 206.458 212.674 206.28 212.74 205.943C212.777 205.754 212.706 205.559 212.553 205.442C210.169 203.619 208.408 203.208 205.482 204.055C205.303 204.106 205.17 204.255 205.135 204.437Z" fill="#D2BCA0"/>
<rect width="3.00347" height="79.6107" transform="matrix(0.984884 -0.173215 0.132641 0.991164 370.552 495.518)" fill="#E4EAA2"/>
<rect width="3.00346" height="79.6109" transform="matrix(-0.984884 -0.173215 -0.13264 0.991164 226.518 494.52)" fill="#E4EAA2"/>
</g>
<defs>
<linearGradient id="paint0_linear" x1="209.5" y1="249" x2="209.5" y2="274" gradientUnits="userSpaceOnUse">
<stop stop-color="#FDD7EB"/>
<stop offset="1" stop-color="#70DCBA"/>
</linearGradient>
<linearGradient id="paint1_linear" x1="389.059" y1="249.304" x2="377.941" y2="271.696" gradientUnits="userSpaceOnUse">
<stop stop-color="#FDD7EB"/>
<stop offset="1" stop-color="#70DCBA"/>
</linearGradient>
<linearGradient id="paint2_linear" x1="253.12" y1="30.157" x2="198.806" y2="43.7681" gradientUnits="userSpaceOnUse">
<stop stop-color="#FDD7EB"/>
<stop offset="1" stop-color="white" stop-opacity="0"/>
</linearGradient>
<linearGradient id="paint3_linear" x1="551" y1="253" x2="551" y2="287" gradientUnits="userSpaceOnUse">
<stop stop-color="#FDD7EB"/>
<stop offset="1" stop-color="white" stop-opacity="0"/>
</linearGradient>
<clipPath id="clip0">
<rect width="598" height="603" fill="white"/>
</clipPath>
</defs>
</svg>
